<?xml version="1.0" standalone="no"?><!DOCTYPE svg PUBLIC "-//W3C//DTD SVG 1.1//EN" "http://www.w3.org/Graphics/SVG/1.1/DTD/svg11.dtd"><svg t="1711954423938" class="icon" viewBox="0 0 1024 1024" version="1.1" xmlns="http://www.w3.org/2000/svg" p-id="1480" xmlns:xlink="http://www.w3.org/1999/xlink" width="200" height="200"><path d="M786.133333 441.557333c11.178667 0 20.48 8.917333 20.48 20.437334v91.946666c0 13.653333 11.093333 24.832 24.746667 24.832h181.76c12.586667 0 15.146667 18.176 2.901333 21.504l-365.568 105.301334a19.925333 19.925333 0 0 1-25.6-19.2v-96.085334a9.045333 9.045333 0 0 0-8.917333-8.96H215.125333a9.002667 9.002667 0 0 1-8.917333-8.832v-107.946666a27.605333 27.605333 0 0 0-27.050667-27.733334l-170.581333-2.986666c-10.026667-0.426667-11.861333-14.506667-2.218667-17.408l373.76-107.904a8.874667 8.874667 0 0 1 11.136 8.490666v104.149334c0 11.093333 9.258667 20.394667 20.437334 20.394666h374.442666zM374.954667 193.834667c13.013333-2.218667 16 14.848 16 14.848s1.066667 40.405333 0 57.088c-1.152 16.64-16.341333 16-16.341334 16H226.304s-13.44-4.821333-15.232-22.272c-2.261333-17.408 18.517333-27.136 18.517333-27.136s132.437333-36.309333 145.28-38.528h0.085334z m251.093333-47.104s-1.92-19.669333 20.096-28.16c21.845333-8.149333 139.434667-38.570667 139.434667-38.570667s21.845333-8.533333 23.338666 20.096c1.493333 28.501333 0 263.594667 0 263.594667s0.768 19.242667-20.010666 20.736c-20.821333 1.493333-137.6 0-137.6 0s-25.258667 2.261333-25.258667-17.792V146.730667z m3.328 611.498666c1.066667-16.682667 16.341333-16 16-16.384h148.266667s13.013333 4.821333 15.232 22.272c2.261333 17.408-18.602667 27.093333-18.602667 27.093334s-132.352 36.309333-145.322667 38.485333c-13.013333 2.645333-15.573333-14.464-15.573333-14.464s-1.066667-40.32 0-57.002667z m-235.434667 119.04s2.176 19.669333-20.096 28.16c-21.888 8.106667-139.434667 38.528-139.434666 38.528s-21.930667 8.576-23.338667-20.053333c-1.493333-28.501333 0-263.594667 0-263.594667s-0.768-19.242667 20.010667-20.736 137.6 0 137.6 0 22.570667-2.261333 25.258666 17.792c2.517333 19.626667 0 33.706667 0 33.706667v186.197333z" p-id="1481" fill="#2c2c2c"></path></svg>